PathFileType	4	(X/Y/Z)	TVC_60_Cal_03_0_static_RCNL2025.trc
DataRate	CameraRate	NumFrames	NumMarkers	Units	OrigDataRate	OrigDataStartFrame	OrigNumFrames
100	100	10	27	mm	100	133	354
Frame#	Time	R_Shoulder			L_Shoulder			C7			J_Notch			R_Elbow			L_Elbow			R_Wrist			L_Wrist			R_Asis			L_Asis			R_Psis			L_Psis			Sacral			Thoracic			Sternum			R_Thigh_Lateral			R_Knee_Lateral			R_Shank_Lateral			R_Ankle_Lateral			R_Heel			R_Toe			L_Thigh_Lateral			L_Knee_Lateral			L_Shank_Lateral			L_Ankle_Lateral			L_Heel			L_Toe		
		X1	Y1	Z1	X2	Y2	Z2	X3	Y3	Z3	X4	Y4	Z4	X5	Y5	Z5	X6	Y6	Z6	X7	Y7	Z7	X8	Y8	Z8	X9	Y9	Z9	X10	Y10	Z10	X11	Y11	Z11	X12	Y12	Z12	X13	Y13	Z13	X14	Y14	Z14	X15	Y15	Z15	X16	Y16	Z16	X17	Y17	Z17	X18	Y18	Z18	X19	Y19	Z19	X20	Y20	Z20	X21	Y21	Z21	X22	Y22	Z22	X23	Y23	Z23	X24	Y24	Z24	X25	Y25	Z25	X26	Y26	Z26	X27	Y27	Z27
133	1.32000000	-292.681030	1352.617676	-68.587044	-251.682861	1360.245361	-408.973267	-302.180939	1420.039062	-256.117920	-205.843079	1286.168457	-232.857651	-357.275665	1014.277893	-9.110516	-291.759308	1012.646484	-462.260162	-310.355286	797.524231	68.151833	-192.507256	799.474030	-482.552917	NaN	NaN	NaN	-202.885056	915.238098	-367.108521	-392.658386	922.777649	-173.027100	-386.158783	922.361572	-282.636475	-389.408585	922.569611	-227.831787	-366.442902	1202.657227	-248.551468	-171.071350	1094.703613	-218.927505	-252.575363	608.386658	-13.676553	-255.675400	449.106110	-90.074570	-285.226227	234.740891	-48.771130	-330.325378	65.664902	-115.512161	-371.589447	58.125294	-164.757034	-200.228851	43.321560	-119.433975	-264.468506	631.882690	-418.083832	-256.496124	441.760406	-332.987640	-300.499115	253.685089	-360.720856	-333.545593	59.766682	-278.801086	-377.074738	61.177753	-235.790680	-205.561676	43.491108	-271.330444
134	1.33000000	-292.958984	1352.646362	-68.564949	-251.882980	1360.260864	-409.066376	-302.328339	1420.021973	-256.129425	-206.274185	1286.096313	-232.778427	-357.416016	1014.262695	-9.119473	-292.035645	1012.633667	-462.299805	-310.690948	797.578430	68.282394	-192.906212	799.614471	-482.773956	NaN	NaN	NaN	-202.950485	915.211548	-367.079010	-392.625702	922.655090	-173.071716	-386.190308	922.226746	-282.673096	-389.408005	922.440918	-227.872406	-366.595520	1202.589355	-248.540314	-170.991104	1094.326782	-218.961990	-252.368210	608.432434	-13.761234	-255.493820	448.996674	-90.007187	-285.061035	234.702545	-48.781952	-330.469208	65.398155	-115.642662	-371.575928	58.125221	-164.814346	-200.126114	43.369556	-119.427742	-264.501709	632.023987	-417.969727	-256.380035	441.598938	-333.044464	-300.505768	253.682632	-360.721252	-333.523804	59.737141	-278.810577	-377.027710	61.235954	-235.809967	-205.546066	43.483093	-271.338409
135	1.34000000	-293.181946	1352.656372	-68.635757	-252.180801	1360.209961	-409.035004	-302.576447	1420.006226	-256.118866	-206.363525	1286.198486	-232.892868	-357.640106	1014.256348	-9.049750	-292.282104	1012.572571	-462.298615	-311.048553	797.556946	68.460091	-193.051613	799.482635	-482.736877	NaN	NaN	NaN	-203.211136	915.070374	-367.055908	-392.700562	922.614258	-173.041504	-386.253998	922.176636	-282.591095	-389.477280	922.395447	-227.816299	-366.776855	1202.560059	-248.509979	-171.064041	1094.279907	-218.980728	-252.346695	608.236084	-13.696024	-255.432983	449.004242	-89.890869	-285.061340	234.652832	-48.796253	-330.180298	65.534637	-115.604652	-371.587921	58.131821	-164.747879	-200.200165	43.333141	-119.362015	-264.456421	631.903870	-418.007599	-256.402313	441.720856	-333.020081	-300.428162	253.688766	-360.697540	-333.556915	59.709198	-278.819824	-376.997803	61.102077	-235.812531	-205.607498	43.453743	-271.354156
136	1.35000000	-293.385193	1352.586914	-68.581894	-252.536255	1360.113403	-409.059570	-302.765259	1419.914429	-256.121857	-206.700043	1286.210205	-232.927124	-357.875793	1014.195496	-8.860620	-292.571045	1012.457703	-462.276276	-311.444641	797.556702	68.632225	-193.303757	799.518860	-482.647797	NaN	NaN	NaN	-203.308884	914.903259	-367.054138	-392.680328	922.520264	-172.889099	-386.402771	922.133545	-282.478638	-389.541550	922.326904	-227.683868	-366.853333	1202.451416	-248.406113	-171.123383	1094.399414	-219.183472	-252.415894	608.031799	-13.527878	-255.490158	448.941345	-90.173279	-284.926971	234.644897	-48.969418	-330.264343	65.576233	-115.554070	-371.576935	58.137596	-164.798706	-200.140961	43.307491	-119.414268	-264.463501	632.022217	-417.930725	-256.325897	441.693146	-332.979584	-300.355560	253.583725	-360.734436	-333.594788	59.639622	-278.779755	-377.073578	61.049473	-235.743805	-205.550919	43.488110	-271.379761
137	1.36000000	-293.424500	1352.489136	-68.734711	-252.770355	1360.122803	-409.032410	-303.045380	1419.944824	-256.076630	-206.871323	1286.228760	-232.905045	-358.103302	1014.237427	-8.876752	-292.851471	1012.378540	-462.271729	-311.592041	797.267639	68.697540	-193.256004	799.457123	-482.529800	NaN	NaN	NaN	-203.922729	915.080933	-366.006866	-392.754669	922.484131	-172.858521	-386.469391	922.023254	-282.393707	-389.612030	922.253693	-227.626114	-367.050995	1202.382568	-248.421112	-171.252930	1094.261841	-218.952621	-252.331528	608.144958	-13.609515	-255.217316	449.005310	-89.909988	-284.908813	234.519012	-48.868328	-330.436707	65.546913	-115.525497	-371.582611	58.004799	-164.834167	-200.167618	43.271748	-119.415283	-264.446716	631.929077	-417.792206	-256.274292	441.521881	-332.945312	-300.405243	253.619537	-360.720490	-333.616089	59.667927	-278.774048	-377.014404	61.043068	-235.804962	-205.602097	43.441956	-271.300446
138	1.37000000	-293.603027	1352.454834	-68.573189	-253.036835	1360.084717	-408.991821	-303.275452	1419.876709	-256.060028	-207.109726	1286.132812	-232.947067	-358.389557	1014.201904	-8.723640	-293.161133	1012.271851	-462.235962	-311.794464	797.301636	68.848648	-193.581718	799.404358	-482.566315	NaN	NaN	NaN	-203.857620	914.972778	-366.673676	-392.799225	922.457458	-172.775024	-386.494995	921.945129	-282.344635	-389.647110	922.201294	-227.559830	-367.222717	1202.318481	-248.282318	-171.289368	1094.352295	-219.195999	-252.116531	608.087585	-13.514916	-255.310532	448.848907	-90.039711	-284.729553	234.595398	-49.045387	-330.411987	65.526733	-115.514847	-371.578247	58.029377	-164.811066	-200.183350	43.310371	-119.411888	-264.495941	632.073730	-417.911041	-256.227631	441.510498	-332.881104	-300.365967	253.539978	-360.684937	-333.612030	59.613831	-278.778412	-377.015839	61.033916	-235.805069	-205.685852	43.403336	-271.368256
139	1.38000000	-293.868713	1352.459839	-68.549149	-253.356552	1360.041748	-409.000397	-303.452606	1419.879272	-256.114532	-207.328339	1286.194946	-232.937714	-358.419922	1014.240662	-8.698223	-293.394714	1012.216675	-462.213654	-311.535156	796.815430	68.544632	-194.058540	799.424011	-482.636032	NaN	NaN	NaN	-204.105743	915.154602	-365.923004	-392.779785	922.349731	-172.691711	-386.587158	921.898193	-282.290131	-389.683472	922.123962	-227.490921	-367.369843	1202.235229	-248.279037	-171.437393	1094.376831	-219.238281	-252.034317	608.114380	-13.380489	-255.127472	448.911255	-90.081635	-284.589661	234.533173	-49.186455	-330.293030	65.468803	-115.379791	-371.508209	58.061722	-164.768768	-200.224197	43.335144	-119.430672	-264.593018	632.036804	-417.875488	-256.283325	441.529419	-332.906799	-300.306671	253.539078	-360.680542	-333.508911	59.611755	-278.810944	-377.056854	61.054283	-235.758270	-205.726166	43.402626	-271.435516
140	1.39000000	-294.029968	1352.471313	-68.556267	-253.594040	1360.018921	-409.025848	-303.725891	1419.840454	-255.995499	-207.469467	1286.256836	-232.966843	-358.605255	1014.231262	-8.523720	-293.686310	1012.197021	-462.220001	-311.685608	796.821899	68.652611	-194.104980	799.382660	-482.587189	NaN	NaN	NaN	-204.010071	914.984192	-366.703003	-392.779724	922.349426	-172.691605	-386.636688	921.916504	-282.231964	-389.708206	922.132965	-227.461784	-367.526794	1202.203735	-248.215729	-171.498627	1094.335571	-219.163208	-251.652542	608.312744	-13.479941	-255.114532	448.927277	-90.004181	-284.361938	234.576828	-49.095917	-330.255035	65.499718	-115.438965	-371.601471	58.089291	-164.750473	-200.249268	43.359848	-119.387215	-264.691620	631.963257	-417.916473	-256.193573	441.538422	-332.901215	-300.313293	253.535141	-360.656097	-333.606140	59.690445	-278.836090	-377.064056	61.036385	-235.767349	-205.591949	43.433170	-271.263733
141	1.40000000	-294.256195	1352.478149	-68.501663	-253.845413	1360.026245	-408.995331	-303.908112	1419.925903	-256.032104	-207.659805	1286.195068	-232.989243	-358.670624	1014.235596	-8.485039	-293.977905	1011.968201	-462.193451	-311.813690	796.875732	68.755447	-194.394760	799.324463	-482.574356	NaN	NaN	NaN	-204.317978	915.142517	-365.872681	-392.822845	922.315796	-172.520920	-386.662476	921.876160	-282.154297	-389.742661	922.095978	-227.337608	-367.677612	1202.197998	-248.190918	-171.533447	1094.270142	-219.083969	-251.372131	608.335327	-13.321822	-254.729416	449.104279	-89.720024	-284.180176	234.655624	-49.156898	-330.204132	65.518013	-115.421272	-371.589417	58.125957	-164.757843	-200.294586	43.400402	-119.306450	-264.555786	632.054382	-418.375427	-256.145782	441.601227	-332.871033	-300.168762	253.536758	-360.613251	-333.487213	59.670517	-278.853119	-377.062042	61.043446	-235.749725	-205.579056	43.438271	-271.271149
142	1.41000000	-294.155426	1352.366821	-68.577217	-254.160004	1359.978027	-408.972015	-304.079346	1419.871704	-256.051453	-207.901825	1286.171997	-232.928818	-358.753601	1014.158875	-8.493538	-294.274567	1012.000916	-462.128723	-312.229340	797.133240	69.081535	-194.579178	799.269592	-482.424240	NaN	NaN	NaN	-204.123520	915.025574	-366.762512	-392.980713	922.325317	-172.333191	-386.792389	921.813049	-282.082642	-389.886551	922.069183	-227.207916	-367.878235	1202.111572	-248.060028	-171.453766	1094.208008	-219.029999	-251.010513	608.600525	-13.194406	-254.433716	448.881287	-89.682549	-283.905304	234.653046	-49.110802	-330.140564	65.610252	-115.354897	-371.508423	58.108253	-164.769745	-200.284775	43.328098	-119.407059	-264.715454	632.281067	-418.035217	-256.144531	441.604858	-332.866974	-300.129425	253.487213	-360.553436	-333.511658	59.686150	-278.788452	-377.048096	61.090092	-235.760483	-205.540619	43.432819	-271.301392
